<?xml version="1.0" encoding="utf-8"?>
<!-- Generator: Adobe Illustrator 24.0.3, SVG Export Plug-In . SVG Version: 6.00 Build 0)  -->
<svg version="1.1" id="Layer_1" xmlns="http://www.w3.org/2000/svg" xmlns:xlink="http://www.w3.org/1999/xlink" x="0px" y="0px"
	 viewBox="0 0 205 76" style="enable-background:new 0 0 205 76;" xml:space="preserve">
<style type="text/css">
	.st0{fill:url(#SVGID_1_);}
	.st1{fill:url(#SVGID_2_);}
	.st2{fill:url(#SVGID_3_);}
	.st3{fill:#6D6E71;}
	.st4{font-family:'Montserrat-SemiBold';}
	.st5{font-size:14.52px;}
	.st6{font-family:'Montserrat-Light';}
</style>
<g>
	<g>
		
			<linearGradient id="SVGID_1_" gradientUnits="userSpaceOnUse" x1="777.8433" y1="323.2476" x2="777.8433" y2="270.7289" gradientTransform="matrix(7.180000e-02 0.9974 -0.9974 7.180000e-02 266.7047 -738.7384)">
			<stop  offset="0" style="stop-color:#3BFF95"/>
			<stop  offset="0.5054" style="stop-color:#0ADE7C"/>
			<stop  offset="1" style="stop-color:#05927D"/>
		</linearGradient>
		<path class="st0" d="M17.4,64.9L17.4,64.9c0,0,3.2-5.2,10.8-5.7c7.5-0.5,11.4,3.5,12.1,4.1c0,0,0,0,0,0c1.7,1.5,3.9,2.4,6.4,2.2
			c4.7-0.3,8.3-4.4,7.9-9.2c-0.3-4.7-4.4-8.3-9.2-7.9c-2.4,0.2-4.5,1.4-6,3.1c0,0,0,0,0,0c-0.6,0.7-3.8,5.3-11.4,5.8
			c-7.5,0.5-11.4-4.1-11.4-4.1l0,0c-1.7-1.5-4-2.4-6.4-2.3c-4.7,0.3-8.3,4.4-7.9,9.2c0.3,4.7,4.4,8.3,9.2,7.9
			C13.8,67.9,15.9,66.7,17.4,64.9z"/>
		
			<linearGradient id="SVGID_2_" gradientUnits="userSpaceOnUse" x1="726.0054" y1="498.5139" x2="726.0054" y2="445.9957" gradientTransform="matrix(0.8766 0.4812 -0.4812 0.8766 -375.2106 -734.1427)">
			<stop  offset="0" style="stop-color:#3BFF95"/>
			<stop  offset="0.5054" style="stop-color:#0ADE7C"/>
			<stop  offset="1" style="stop-color:#05927D"/>
		</linearGradient>
		<path class="st1" d="M34.6,40.3L34.6,40.3c0,0-2.6-5.5,1-12.1c3.6-6.6,9.2-7.7,10-7.9c0,0,0,0,0,0c2.2-0.6,4.1-2,5.3-4.1
			c2.3-4.2,0.8-9.4-3.4-11.6c-4.1-2.3-9.4-0.8-11.6,3.4c-1.2,2.1-1.3,4.5-0.6,6.7c0,0,0,0,0,0c0.3,0.9,2.3,6.1-1.3,12.7
			c-3.6,6.6-9.7,7.4-9.7,7.4l0,0c-2.2,0.6-4.2,2-5.4,4.2c-2.3,4.1-0.8,9.4,3.4,11.6c4.2,2.3,9.4,0.8,11.6-3.4
			C35.1,44.9,35.3,42.4,34.6,40.3z"/>
		
			<linearGradient id="SVGID_3_" gradientUnits="userSpaceOnUse" x1="-136.0305" y1="206.4115" x2="-136.0305" y2="153.8933" gradientTransform="matrix(0.7905 -0.6124 0.6124 0.7905 57.6774 -175.3467)">
			<stop  offset="0" style="stop-color:#3BFF95"/>
			<stop  offset="0.5054" style="stop-color:#0ADE7C"/>
			<stop  offset="1" style="stop-color:#05927D"/>
		</linearGradient>
		<path class="st2" d="M70.9,54.2L70.9,54.2c0,0-6.1,0.2-10.7-5.8c-4.6-6-3.4-11.4-3.3-12.3c0,0,0,0,0,0c0.3-2.2-0.2-4.6-1.7-6.5
			c-2.9-3.7-8.3-4.4-12-1.5c-3.7,2.9-4.4,8.3-1.5,12c1.5,1.9,3.6,3,5.9,3.3c0,0,0,0,0,0c0.9,0.1,6.5,0.3,11.1,6.2
			c4.6,6,2.9,11.8,2.9,11.8l0,0c-0.4,2.3,0.2,4.6,1.7,6.6c2.9,3.7,8.3,4.4,12,1.5c3.7-2.9,4.4-8.3,1.5-12
			C75.3,55.5,73.1,54.4,70.9,54.2z"/>
	</g>
	<g>
		<text transform="matrix(1 0 0 1 71.1835 44.6039)"><tspan x="0" y="0" class="st3 st4 st5">ARGO </tspan><tspan x="48.9" y="0" class="st3 st6 st5">ANALYTICA</tspan></text>
	</g>
</g>
</svg>
